<svg xmlns="http://www.w3.org/2000/svg" xmlns:xlink="http://www.w3.org/1999/xlink" width="86" height="86" viewBox="0 0 86 86">
  <defs>
    <linearGradient id="linear-gradient" x1="0.5" x2="0.5" y2="1" gradientUnits="objectBoundingBox">
      <stop offset="0" stop-color="#547ddc"/>
      <stop offset="1" stop-color="#345dbc"/>
    </linearGradient>
    <clipPath id="clip-icon_1">
      <rect width="86" height="86"/>
    </clipPath>
  </defs>
  <g id="icon_1" data-name="icon – 1" clip-path="url(#clip-icon_1)">
    <rect id="Rectangle_194" data-name="Rectangle 194" width="86" height="86" rx="43" fill="url(#linear-gradient)"/>
    <g id="panorama_black_24dp" transform="translate(21.743 21.743)">
      <path id="Path_52" data-name="Path 52" d="M0,0H42.514V42.514H0Z" fill="none"/>
      <path id="Path_53" data-name="Path 53" d="M39.971,28.8V7.543A3.553,3.553,0,0,0,36.428,4H4.543A3.553,3.553,0,0,0,1,7.543V28.8a3.553,3.553,0,0,0,3.543,3.543H36.428A3.553,3.553,0,0,0,39.971,28.8ZM14.286,19.057l4.429,5.332,6.2-7.989,7.971,10.629H8.086Z" transform="translate(0.771 3.086)" fill="#fff"/>
    </g>
  </g>
</svg>
