<svg xmlns="http://www.w3.org/2000/svg" xmlns:xlink="http://www.w3.org/1999/xlink" width="86" height="86" viewBox="0 0 86 86">
  <defs>
    <linearGradient id="linear-gradient" x1="0.5" x2="0.5" y2="1" gradientUnits="objectBoundingBox">
      <stop offset="0" stop-color="#54d7dc"/>
      <stop offset="1" stop-color="#31dab4"/>
    </linearGradient>
    <clipPath id="clip-iconb_3">
      <rect width="86" height="86"/>
    </clipPath>
  </defs>
  <g id="iconb_3" data-name="iconb – 3" clip-path="url(#clip-iconb_3)">
    <rect id="Rectangle_224" data-name="Rectangle 224" width="86" height="86" rx="43" fill="url(#linear-gradient)"/>
    <g id="lock_black_24dp" transform="translate(27.594 27)">
      <path id="Path_64" data-name="Path 64" d="M0,0H31.406V31.406H0Z" fill="none"/>
      <path id="Path_65" data-name="Path 65" d="M22.32,10.16H21.011V7.543a6.543,6.543,0,1,0-13.086,0V10.16H6.617A2.625,2.625,0,0,0,4,12.777V25.863A2.625,2.625,0,0,0,6.617,28.48h15.7a2.625,2.625,0,0,0,2.617-2.617V12.777A2.625,2.625,0,0,0,22.32,10.16ZM14.469,21.937a2.617,2.617,0,1,1,2.617-2.617A2.625,2.625,0,0,1,14.469,21.937ZM18.525,10.16H10.412V7.543a4.057,4.057,0,0,1,8.113,0Z" transform="translate(1.234 0.309)"/>
    </g>
  </g>
</svg>
