<svg xmlns="http://www.w3.org/2000/svg" xmlns:xlink="http://www.w3.org/1999/xlink" width="86" height="86" viewBox="0 0 86 86">
  <defs>
    <linearGradient id="linear-gradient" x1="0.5" x2="0.5" y2="1" gradientUnits="objectBoundingBox">
      <stop offset="0" stop-color="#31dab4"/>
      <stop offset="1" stop-color="#54d7dc"/>
    </linearGradient>
    <clipPath id="clip-iconb_5">
      <rect width="86" height="86"/>
    </clipPath>
  </defs>
  <g id="iconb_5" data-name="iconb – 5" clip-path="url(#clip-iconb_5)">
    <rect id="Rectangle_225" data-name="Rectangle 225" width="86" height="86" rx="43" fill="url(#linear-gradient)"/>
    <g id="bug_report_black_24dp" transform="translate(24.696 24.143)">
      <path id="Path_66" data-name="Path 66" d="M0,0H36.607V36.607H0Z" fill="none"/>
      <path id="Path_67" data-name="Path 67" d="M28.4,10.627H24.119a9.129,9.129,0,0,0-2.776-2.99l2.486-2.486L21.678,3l-3.31,3.31A9.252,9.252,0,0,0,16.2,6.051a9.027,9.027,0,0,0-2.151.259L10.727,3,8.576,5.151l2.471,2.486a9.247,9.247,0,0,0-2.761,2.99H4v3.051H7.188A10.125,10.125,0,0,0,7.051,15.2v1.525H4v3.051H7.051V21.3a10.125,10.125,0,0,0,.137,1.525H4V25.88H8.286a9.136,9.136,0,0,0,15.833,0H28.4V22.829H25.217a10.125,10.125,0,0,0,.137-1.525V19.778H28.4V16.728H25.354V15.2a10.125,10.125,0,0,0-.137-1.525H28.4Zm-6.1,6.1V21.3a6.494,6.494,0,0,1-.107,1.068l-.153.991-.564.991a6.09,6.09,0,0,1-10.555,0l-.564-.976-.153-.991A6.513,6.513,0,0,1,10.1,21.3V15.2a6.179,6.179,0,0,1,.107-1.068l.153-.991.564-.991a6.253,6.253,0,0,1,1.846-2l.869-.595,1.129-.275A5.776,5.776,0,0,1,16.2,9.1a5.9,5.9,0,0,1,1.449.183l1.037.244.93.641a5.941,5.941,0,0,1,1.846,2l.58.991.153.991A6.157,6.157,0,0,1,22.3,15.2v1.525Zm-9.152,3.051h6.1v3.051h-6.1Zm0-6.1h6.1v3.051h-6.1Z" transform="translate(2.101 1.576)"/>
    </g>
  </g>
</svg>
