<svg xmlns="http://www.w3.org/2000/svg" xmlns:xlink="http://www.w3.org/1999/xlink" width="86" height="86" viewBox="0 0 86 86">
  <defs>
    <linearGradient id="linear-gradient" x1="0.5" y1="1.452" x2="0.5" gradientUnits="objectBoundingBox">
      <stop offset="0" stop-color="#c04cb8"/>
      <stop offset="1" stop-color="#e1323e"/>
    </linearGradient>
    <clipPath id="clip-iconb_9">
      <rect width="86" height="86"/>
    </clipPath>
  </defs>
  <g id="iconb_9" data-name="iconb – 9" clip-path="url(#clip-iconb_9)">
    <rect id="Rectangle_241" data-name="Rectangle 241" width="86" height="86" rx="43" fill="url(#linear-gradient)"/>
    <g id="science_black_24dp_1_" data-name="science_black_24dp (1)" transform="translate(29.008 29.007)">
      <g id="Group_11" data-name="Group 11">
        <rect id="Rectangle_240" data-name="Rectangle 240" width="29" height="29" transform="translate(-0.007 -0.007)" fill="none"/>
      </g>
      <g id="Group_12" data-name="Group 12" transform="translate(3.625 4.832)">
        <path id="Path_74" data-name="Path 74" d="M15.08,12.855l6.04,8.058H6.624l6.04-8.058V6.416H15.08M18.656,4H9.088a.6.6,0,0,0-.471.979L10.248,7.02v5.037L3.241,21.4a1.211,1.211,0,0,0,.966,1.933H23.536A1.211,1.211,0,0,0,24.5,21.4L17.5,12.058V7.02l1.631-2.042A.6.6,0,0,0,18.656,4Z" transform="translate(-3.001 -4)" fill="#fff"/>
      </g>
    </g>
  </g>
</svg>
